<svg xmlns="http://www.w3.org/2000/svg" viewBox="0 0 48.63 48.67"><defs><style>.f9029d68-b71b-4d90-9b53-e9dae93601d9{fill:#202020;}</style></defs><title>enter</title><g id="6a9969bb-068b-4403-82a3-158fd8d07101" data-name="Calque 2"><path d="M53.54,51.78H46.46a.25.25,0,0,1-.22-.13.27.27,0,0,1,0-.26l3.34-7.23a.49.49,0,0,1,.88,0l3.34,7.23a.27.27,0,0,1,0,.26A.26.26,0,0,1,53.54,51.78ZM50,44.18a.17.17,0,0,0-.16.11l-3.34,7.2h7l-3.33-7.19A.17.17,0,0,0,50,44.18Zm-3.65,7.28h0Z" transform="translate(-25.81 -26.59)"/><path d="M53.54,52H46.46a.52.52,0,0,1-.44-.24.55.55,0,0,1,0-.5l3.35-7.23a.73.73,0,0,1,1.32,0L54,51.29a.55.55,0,0,1,0,.5A.52.52,0,0,1,53.54,52ZM50,44.53l-3.11,6.71H53.1Z" transform="translate(-25.81 -26.59)"/><circle cx="24.19" cy="30.81" r="0.6"/><circle cx="24.19" cy="27.83" r="1.19"/><path class="f9029d68-b71b-4d90-9b53-e9dae93601d9" d="M74.36,50.82c0,.23.06.15.07.18C74.4,50.62,74.34,50.83,74.36,50.82Z" transform="translate(-25.81 -26.59)"/><polygon class="f9029d68-b71b-4d90-9b53-e9dae93601d9" points="48.08 20.54 48.11 20.6 47.97 20.07 48.08 20.54"/><path class="f9029d68-b71b-4d90-9b53-e9dae93601d9" d="M73.12,43.76a18.06,18.06,0,0,0,.45,1.81v.11l.16.25C73.52,45.2,73.23,44.27,73.12,43.76Z" transform="translate(-25.81 -26.59)"/><path class="f9029d68-b71b-4d90-9b53-e9dae93601d9" d="M72.7,41.93c0,.13-.17-.36.14.42l0-.08Z" transform="translate(-25.81 -26.59)"/><path class="f9029d68-b71b-4d90-9b53-e9dae93601d9" d="M72.82,42.27c.13.34,0-.24,0,0Z" transform="translate(-25.81 -26.59)"/><path class="f9029d68-b71b-4d90-9b53-e9dae93601d9" d="M72.13,40.71l.25.42c0-.1-.21-.49-.12-.35C72,40.34,72.05,40.44,72.13,40.71Z" transform="translate(-25.81 -26.59)"/><path class="f9029d68-b71b-4d90-9b53-e9dae93601d9" d="M71.86,40.33l.13.22A.7.7,0,0,0,71.86,40.33Z" transform="translate(-25.81 -26.59)"/><path class="f9029d68-b71b-4d90-9b53-e9dae93601d9" d="M72.25,41,72,40.55c0,.07,0,.09.11.22C72.06,40.74,72.13,40.82,72.25,41Z" transform="translate(-25.81 -26.59)"/><path class="f9029d68-b71b-4d90-9b53-e9dae93601d9" d="M72.36,41.29c.11.26.21.59,0,.16C72.69,42.31,72.74,42.14,72.36,41.29Z" transform="translate(-25.81 -26.59)"/><path class="f9029d68-b71b-4d90-9b53-e9dae93601d9" d="M73,43.62A2.21,2.21,0,0,1,73,44l.12.29C73.1,44.12,73,43.59,73,43.62Z" transform="translate(-25.81 -26.59)"/><path class="f9029d68-b71b-4d90-9b53-e9dae93601d9" d="M70.74,38s0,.17,0,.22l.21.29A2.1,2.1,0,0,1,70.74,38Z" transform="translate(-25.81 -26.59)"/><path class="f9029d68-b71b-4d90-9b53-e9dae93601d9" d="M70.77,38.25l-.31-.44C70.7,38.22,70.76,38.29,70.77,38.25Z" transform="translate(-25.81 -26.59)"/><polygon class="f9029d68-b71b-4d90-9b53-e9dae93601d9" points="45.91 13.72 46.37 14.47 45.84 13.57 45.91 13.72"/><polygon class="f9029d68-b71b-4d90-9b53-e9dae93601d9" points="43.77 9.75 44 9.96 43.61 9.57 43.77 9.75"/><path class="f9029d68-b71b-4d90-9b53-e9dae93601d9" d="M68.74,35.27c.19.14-.15-.28,0-.12a8.43,8.43,0,0,0-.71-.67A6.49,6.49,0,0,1,68.74,35.27Z" transform="translate(-25.81 -26.59)"/><path class="f9029d68-b71b-4d90-9b53-e9dae93601d9" d="M67.7,34.16l.36.32Z" transform="translate(-25.81 -26.59)"/><path class="f9029d68-b71b-4d90-9b53-e9dae93601d9" d="M70,37.05a1.13,1.13,0,0,0-.2-.38l.08.21Z" transform="translate(-25.81 -26.59)"/><path class="f9029d68-b71b-4d90-9b53-e9dae93601d9" d="M69.84,36.89h0l-.27-.37Z" transform="translate(-25.81 -26.59)"/><path class="f9029d68-b71b-4d90-9b53-e9dae93601d9" d="M70,37.09l0,0S70,37.08,70,37.09Z" transform="translate(-25.81 -26.59)"/><path class="f9029d68-b71b-4d90-9b53-e9dae93601d9" d="M71.13,39c-.2-.25-.57-.78-.29-.22C71,39,70.84,38.67,71.13,39Z" transform="translate(-25.81 -26.59)"/><path class="f9029d68-b71b-4d90-9b53-e9dae93601d9" d="M70.08,37.35c.11.15.19.32.29.48,0,0,0-.12.07,0C70.32,37.67,70.21,37.5,70.08,37.35Z" transform="translate(-25.81 -26.59)"/><polygon class="f9029d68-b71b-4d90-9b53-e9dae93601d9" points="44.09 10.54 44.28 10.76 44.15 10.59 44.09 10.54"/><path class="f9029d68-b71b-4d90-9b53-e9dae93601d9" d="M68.31,34.93c-.18-.17-.36-.36-.57-.58l.64.73C68.43,35.1,68.55,35.18,68.31,34.93Z" transform="translate(-25.81 -26.59)"/><path class="f9029d68-b71b-4d90-9b53-e9dae93601d9" d="M69.08,35.86l0,0S69.07,35.87,69.08,35.86Z" transform="translate(-25.81 -26.59)"/><polygon class="f9029d68-b71b-4d90-9b53-e9dae93601d9" points="39.78 5.7 39.8 5.74 39.82 5.74 39.78 5.7"/><path class="f9029d68-b71b-4d90-9b53-e9dae93601d9" d="M68.41,35.13a2.24,2.24,0,0,0,.37.38l-.4-.43S68.35,35.07,68.41,35.13Z" transform="translate(-25.81 -26.59)"/><path class="f9029d68-b71b-4d90-9b53-e9dae93601d9" d="M67.1,33.58a3.22,3.22,0,0,1,.28.33A1.08,1.08,0,0,0,67.1,33.58Z" transform="translate(-25.81 -26.59)"/><path class="f9029d68-b71b-4d90-9b53-e9dae93601d9" d="M69,35.74l0,0C69,35.7,69,35.71,69,35.74Z" transform="translate(-25.81 -26.59)"/><path class="f9029d68-b71b-4d90-9b53-e9dae93601d9" d="M69,35.74c-.08-.09-.16-.16-.23-.23l.26.31Z" transform="translate(-25.81 -26.59)"/><path class="f9029d68-b71b-4d90-9b53-e9dae93601d9" d="M64.61,32.06a2.45,2.45,0,0,1,1,.73c.42.32.29-.06,0-.46,0,0,0,0-.5-.29.15.12.89.86.5.58A7.45,7.45,0,0,1,64.9,32c.2.24-.82-.48-.75-.29l.53.35S64.48,31.94,64.61,32.06Z" transform="translate(-25.81 -26.59)"/><path class="f9029d68-b71b-4d90-9b53-e9dae93601d9" d="M66.4,33.05l.17.15a7.17,7.17,0,0,1-.53-.6c-.31-.23-.38-.27-.41-.27l.83.77Z" transform="translate(-25.81 -26.59)"/><path class="f9029d68-b71b-4d90-9b53-e9dae93601d9" d="M67.33,33.91c-.16-.1-.6-.43-.4-.16.49.46.37.3.67.57-.75-.79.23.21-.27-.4l.41.43-.36-.44v0h0s0,.06,0,0h0l0,0c-.2-.24,0,0,0,0h0c-.25-.27-.55-.49-.82-.73C66.73,33.37,67,33.55,67.33,33.91Z" transform="translate(-25.81 -26.59)"/><path class="f9029d68-b71b-4d90-9b53-e9dae93601d9" d="M70.42,38.4s0,0,0,0S70.36,38.29,70.42,38.4Z" transform="translate(-25.81 -26.59)"/><path class="f9029d68-b71b-4d90-9b53-e9dae93601d9" d="M70.23,38a2,2,0,0,1,.23.33c.1.2,0,0,0,0s.32.44.09,0l0-.06a5,5,0,0,1-.39-.85A2,2,0,0,0,70.23,38Z" transform="translate(-25.81 -26.59)"/><path class="f9029d68-b71b-4d90-9b53-e9dae93601d9" d="M68.86,35.87a7.68,7.68,0,0,0-.61-.67l.26.38v0C68.84,35.94,68.79,35.84,68.86,35.87Z" transform="translate(-25.81 -26.59)"/><path class="f9029d68-b71b-4d90-9b53-e9dae93601d9" d="M65.53,32.19l.13,0a4.37,4.37,0,0,0-.48-.25Z" transform="translate(-25.81 -26.59)"/><polygon class="f9029d68-b71b-4d90-9b53-e9dae93601d9" points="38.77 4.9 38.84 4.88 38.56 4.72 38.77 4.9"/><path class="f9029d68-b71b-4d90-9b53-e9dae93601d9" d="M29.67,63l.15.22Z" transform="translate(-25.81 -26.59)"/><path class="f9029d68-b71b-4d90-9b53-e9dae93601d9" d="M28.78,61.38l0,0C28.79,61.42,28.82,61.45,28.78,61.38Z" transform="translate(-25.81 -26.59)"/><path class="f9029d68-b71b-4d90-9b53-e9dae93601d9" d="M37.19,30.29c-.36.16-.79.32-.71.35h.14A6,6,0,0,1,37.19,30.29Z" transform="translate(-25.81 -26.59)"/><path class="f9029d68-b71b-4d90-9b53-e9dae93601d9" d="M26.48,46.28l0-.11v-.26C26.51,46,26.48,46.15,26.48,46.28Z" transform="translate(-25.81 -26.59)"/><path class="f9029d68-b71b-4d90-9b53-e9dae93601d9" d="M26.71,46.6l-.12.49C26.62,47,26.66,46.82,26.71,46.6Z" transform="translate(-25.81 -26.59)"/><path class="f9029d68-b71b-4d90-9b53-e9dae93601d9" d="M36.67,70.44c.1,0,.19.09.29.12C36.57,70.29,36.72,70.43,36.67,70.44Z" transform="translate(-25.81 -26.59)"/><path class="f9029d68-b71b-4d90-9b53-e9dae93601d9" d="M53.46,26.92c-.33-.08-.59-.13-.82-.17A2.77,2.77,0,0,0,53.46,26.92Z" transform="translate(-25.81 -26.59)"/><path class="f9029d68-b71b-4d90-9b53-e9dae93601d9" d="M28.68,62.73c.1.14.15.19.16.18S28.68,62.7,28.68,62.73Z" transform="translate(-25.81 -26.59)"/><path class="f9029d68-b71b-4d90-9b53-e9dae93601d9" d="M51.67,26.69l.17,0a5.7,5.7,0,0,1,.8,0A3.45,3.45,0,0,0,51.67,26.69Z" transform="translate(-25.81 -26.59)"/><path class="f9029d68-b71b-4d90-9b53-e9dae93601d9" d="M69.59,64.22l0-.07S69.62,64.17,69.59,64.22Z" transform="translate(-25.81 -26.59)"/><path class="f9029d68-b71b-4d90-9b53-e9dae93601d9" d="M74.05,54.23l-.07.46C74,54.61,74,54.47,74.05,54.23Z" transform="translate(-25.81 -26.59)"/><path class="f9029d68-b71b-4d90-9b53-e9dae93601d9" d="M60.51,29Z" transform="translate(-25.81 -26.59)"/><path class="f9029d68-b71b-4d90-9b53-e9dae93601d9" d="M61.49,29.75c-.05,0-.09,0-.1,0A.19.19,0,0,1,61.49,29.75Z" transform="translate(-25.81 -26.59)"/><path class="f9029d68-b71b-4d90-9b53-e9dae93601d9" d="M49.18,27.05h0Z" transform="translate(-25.81 -26.59)"/><path class="f9029d68-b71b-4d90-9b53-e9dae93601d9" d="M60.84,29.19,60.56,29Z" transform="translate(-25.81 -26.59)"/><path class="f9029d68-b71b-4d90-9b53-e9dae93601d9" d="M60.81,29.14l.19.1S61,29.22,60.81,29.14Z" transform="translate(-25.81 -26.59)"/><path class="f9029d68-b71b-4d90-9b53-e9dae93601d9" d="M60.19,28.85l.37.18c-.05,0-.06,0-.05,0Z" transform="translate(-25.81 -26.59)"/><path class="f9029d68-b71b-4d90-9b53-e9dae93601d9" d="M53.12,74.57h.05C53.42,74.51,53.31,74.53,53.12,74.57Z" transform="translate(-25.81 -26.59)"/><polygon class="f9029d68-b71b-4d90-9b53-e9dae93601d9" points="6.84 8.31 6.86 8.29 6.83 8.31 6.84 8.31"/><path class="f9029d68-b71b-4d90-9b53-e9dae93601d9" d="M32.09,35.58a2.85,2.85,0,0,1,.55-.68L32.3,35Z" transform="translate(-25.81 -26.59)"/><path class="f9029d68-b71b-4d90-9b53-e9dae93601d9" d="M32.34,66.66l-.37-.5c.57.49.91.9.58.43-.09,0-.53-.39-.89-.86s-.72-1-.83-.92l-.21-.35.16.19c-.4-.68-.47-.39-1-1.27-.17-.31-.27-.54-.13-.35l-.45-.65c-.11-.2,0-.16.06,0-.21-.34-.37-.71-.55-1.07h0c-.1-.14-.32-.47-.42-.64s.09.13.07,0-.23-.38-.32-.59.19.23.4.64c-.09-.64-.31-.47-.65-1.78l.24.58a12.23,12.23,0,0,0-.41-1.55c0,.16.31,1.39,0,.73a5.37,5.37,0,0,0-.31-.81c.07,0,0-.39-.17-.85h.1a4,4,0,0,0-.31-.73c-.13-.56-.09-.69,0-.83-.13-.91,0,.65-.21-.42-.05-.77-.24-1.29-.34-2.2,0-.54.06.09.08-.1l-.1-.47c0-.12,0-.08,0-.06,0-.4-.1,0-.15-.66a2.16,2.16,0,0,1,0-.81,5.46,5.46,0,0,0,.08-1.27c0-.19.05.09.09,0a17.79,17.79,0,0,1,0-1.81l.17-.73c-.15.53-.13-.18-.11-.81l-.15.46a6.74,6.74,0,0,1,.14-1c.05-.11.06,0,.05.16l0-.18c.12-.34.13-.15.12.11l-.15.33c0,.26.05.5.11.46a2.63,2.63,0,0,1,0-.33c0,.07,0,.11,0,.08s0-.14,0-.3l.16-.19,0-.06.38-1.23.09-.68.16-.7A12.61,12.61,0,0,1,28,41.48c-.09.36.08.12.16.18a11.65,11.65,0,0,0-.64,1.78c.14-.37.16-.28.14-.18L28,42c0,.06.14-.25.33-.55-.25.18.35-.95.55-1.46.06,0,.05.13-.25.73.43-.61.23-1,.71-1.53a.86.86,0,0,0-.15.28c.16-.35.68-1.13.6-.92l-.09.14.52-.84c.2-.3.44-.6.64-.9a7.25,7.25,0,0,0,.75-1.18.77.77,0,0,1,0,.28c.3-.59.65-1.15,1-1.74,0,.2.6-.1,0,.61.2-.18.4-.43.78-.82-.15.1-.44.19-.27,0a11.81,11.81,0,0,0,1.06-.74c-.21.17-.11-.16.21-.44,0,.06.14.1,0,.22a6.68,6.68,0,0,1,.7-.8c-.19.18,0,.14.27,0-.11,0,.72-.54.93-.72l-.38.24a17.16,17.16,0,0,1,1.83-1.48c-.11.1-.19.36.33.07a5.75,5.75,0,0,1,.6-.63A7.33,7.33,0,0,1,39.93,29l.2,0a5.52,5.52,0,0,1,.72-.38c-.43.29-1.56,1.18-2.19,1.59a3.63,3.63,0,0,0,.73-.29c.23-.06-.29.22-.46.3l1.38-.63c-.05,0,.2-.18.46-.33s.54-.25.49-.28a13.84,13.84,0,0,0-1.48.77,3.6,3.6,0,0,1,1.79-1.05c.27-.06-.14.24-.1.26a7,7,0,0,1,1.05-.43l-.42.21a6.69,6.69,0,0,1,1.62-.55c.25,0,.76-.06.78-.13-.42,0-.59-.33-.34-.48a8.69,8.69,0,0,1,1.63-.18c.43,0-.58.3-.22.33a1.24,1.24,0,0,1,.33-.13c.26,0-.1.1.47,0,.08-.12,1.15-.17.25-.13a7.44,7.44,0,0,1,1.25-.14c-.22-.06.58-.26,1.15-.32,0,0,.09.06.16.07a7.71,7.71,0,0,1,1.46,0l1.39.1c.1,0,.62.09.39.12a3.26,3.26,0,0,1,.63,0c.63.18-.73-.1-.26.08a8.65,8.65,0,0,1,1.33.08,6.83,6.83,0,0,0-1.55-.22,4.45,4.45,0,0,1,2,0c.89.13.36.16.52.16a8.21,8.21,0,0,0,1.52.3,3.29,3.29,0,0,1,1.27.36c.5.27,0,.16.07.26a15.12,15.12,0,0,0-1.54-.53L57,28a5.87,5.87,0,0,1-1-.22,24,24,0,0,1,3.89,1.46c.22.07.59.22.43.11L60,29.17c-.32-.23.74.26.28,0A7.47,7.47,0,0,1,62,30l.08.16a2.52,2.52,0,0,0-.61-.4,11.46,11.46,0,0,0,1.33.81l-.44-.34a8,8,0,0,1,1.7,1c-.2-.26-.13-.09-.47-.47.29.34-1.53-.93-1-.45a9.61,9.61,0,0,0-1.26-.92s.19.16-.34-.11l-.13,0,0,0h0s0,0,0,0a1.4,1.4,0,0,1,.24.17c-.29-.06-1.13-.47-1.43-.57s.15,0,0-.08a2.59,2.59,0,0,0-.45-.14c0-.08-.83-.42,0-.18l-.7-.25a8,8,0,0,0-1.32-.5c-.33-.1-.87-.15-.56-.12l-1.14-.25v0A11.7,11.7,0,0,0,53.72,27c-.61-.07-1.22-.2-1.88-.27-.38,0-.78,0-1.43-.05l-.12-.07a11.85,11.85,0,0,0-1.7.06,5,5,0,0,0-1.52,0c-.64.11-1.31.24-1.75.29l0,.08a18.72,18.72,0,0,0-1.85.5l.06.05c-.61.18-1.58.46-2.53.81a1.87,1.87,0,0,1,.48-.18,7,7,0,0,0-.89.27c-.29.13-.57.29-.84.44-.55.31-1.1.57-1.59.81a3.14,3.14,0,0,1-.57.35l.06,0-.1.06-.34.16.29-.13c-.18.11-.45.28-.71.46h-.15l-.06,0c-.28.14-.19.15,0,.11a1.87,1.87,0,0,0-.32.28c-.27.05-.63.52-1,.62a6.68,6.68,0,0,1-.67.58,2.86,2.86,0,0,0-.56.66s-.09,0,0-.06a6.09,6.09,0,0,0-.74.68l-.17,0a4.53,4.53,0,0,0-.45.63c-.35.3-.51.42-.25,0-.66.9-.58.69-1.12,1.47l0-.08a8,8,0,0,1-.62.88,23.66,23.66,0,0,0-3,4.82c.17-.13,0,.06-.09.31s-.26.56-.21.62-.2.34-.12,0a9.35,9.35,0,0,0-.65,2.07c-.06.1,0-.22-.05-.13a1.69,1.69,0,0,1-.09.41c-.05.09,0-.15,0-.31-.25,1-.15,1.12-.05,1.21a2.19,2.19,0,0,0-.2,1.12c-.07.16-.15.45-.07-.17a13.13,13.13,0,0,0-.28,2.17,3.89,3.89,0,0,0,0,.58l-.08,1.63,0-.21a7.72,7.72,0,0,1,.07,1.27v0c0,1.43,0,.62.09,2l.06-.09c.18.11.1,1.25.28,2v-.3c.11.43.09,1.26.17,1.71,0,.1-.06-.14-.1-.27.21,1.17.13.12.37,1,0,.17-.19-.16,0,.41.07.29.72,1.58,1,2.35,0-.18-.08-.35.12,0a11.35,11.35,0,0,0,1,2,.27.27,0,0,1,0,.11,17.14,17.14,0,0,0,1.06,1.51c.05.51,1.85,2.33,1.72,2.42l1,1.08h0a5.71,5.71,0,0,0,1.22,1c.16.15,0,.06,0,.06a7.88,7.88,0,0,0,2.12,1.61l0,.13a17.84,17.84,0,0,0,2.83,1.77s0,0-.15,0c.71.28,1.49.76,2.22,1.07a5,5,0,0,0,1.67.5,7.74,7.74,0,0,0,1,.21c-1.25-.34.21-.06-.29-.24.49.11,1.25.41.64.26l-.09,0c-.26.07,1.54.46,1.49.51a26.94,26.94,0,0,0,7.4.4c-.09,0-.19,0-.28-.08.27,0,.55-.07.82-.11s.3,0-.29.13a3.5,3.5,0,0,0,1-.23c1.15-.13-.43.19-.08.14l.48-.08h-.11c.38-.12.41-.11,1.1-.3.45-.09.24,0,.42,0,0,0,.06,0,.26-.07l1-.25-.43,0c.44-.15.95-.25.46-.21a13.29,13.29,0,0,0,2.17-.69c.87-.36,1.67-.8,1.88-.86.57-.32,1.09-.7,1.78-1.09-.18.08-.33.06.26-.28-.06.14.24,0,.58-.22a7.68,7.68,0,0,1,1-.65c-.23.11.16-.18.51-.46s.64-.6.31-.39c.43-.37.07,0,.43-.22a28.9,28.9,0,0,0,3.23-3.4s-.21.16,0-.15l.64-.64a3.43,3.43,0,0,1,.47-.79c-.06.06-.16.15,0,0A26.34,26.34,0,0,0,74,54.89c-.12.44-.08.14,0-.2,0,.22-.06,0-.1,0,.09-.46.22-.91.29-1.38-.08-.26.07-1.5,0-1.65v.44c-.08-.59-.29.81-.43.71.14.67-.41,1.67-.37,2.76-.06.22,0-.21-.06-.09a3.13,3.13,0,0,1-.23,1.18v-.07a18.53,18.53,0,0,1-1.47,4.06l.13-.1c-.19.36-.24.43-.34.6-.11.47.5-1,.42-.6a10.93,10.93,0,0,0-.8,1.49,5.12,5.12,0,0,1-.87,1.3c-.32.54.17-.11-.16.43l-.12.11,0,.17c-.21.35-.41.47-.44.47l.22-.32c-.36.39-.89,1.21-1,1.35L69,65.1a27.71,27.71,0,0,1-3.67,4l.11-.06a21.57,21.57,0,0,1-1.91,1.46l0,0a5.08,5.08,0,0,1-.84.6c.28-.22-.61.27-.24,0a11.35,11.35,0,0,0-1.28,1l-.22,0a4,4,0,0,1-.89.53c.5-.29-.44.12.11-.22a8.44,8.44,0,0,0-.88.39l-.69.29a3.75,3.75,0,0,1-1.07.34c-.58.38,1.22-.35.88-.19.31-.07-.49.3-.93.44s-.82,0-1.95.34l.24-.07a7.13,7.13,0,0,1-1.37.3c-.28.14-.69.1-.75.23l1.06-.19a13.17,13.17,0,0,1-2.16.44,4.67,4.67,0,0,1,.57-.17,7.76,7.76,0,0,1-.86.11c.07-.1,1.29-.22,1.92-.4-.32,0-1.21.27-.9.1a2.67,2.67,0,0,1-.83.19,5.39,5.39,0,0,0-1.09.1l0-.08a5.12,5.12,0,0,1-.61.08l.41-.12a9.44,9.44,0,0,1-1.84,0c1.28,0,.29.11.83.16-1.59,0-.91-.22-2.68-.28.24,0,.9.09.52.11a3.91,3.91,0,0,1-1-.18c-1.16-.17.17.1-.33.06a3.93,3.93,0,0,0-1.09-.1v-.07c-1.31-.3-.39.08-1.55-.26l.52,0L44,73.9l.15-.05a5.49,5.49,0,0,1-1.52-.4c.13.1-.12.09-.68-.11-.37-.18.23,0-.56-.27a1.69,1.69,0,0,1,.73.23,2.12,2.12,0,0,1,.24,0A11.86,11.86,0,0,0,41,72.83l.31.12a7.5,7.5,0,0,1-1.16-.38c-.17-.11,0-.06.13,0-.23-.1-.4-.14-.73-.3.11,0,.12-.07.59.13l-1.07-.45c-.06-.05-.5-.33-.36-.28-.52-.37-1.41-.7-2.1-1.22a1.37,1.37,0,0,1-.27-.16c-.62-.51-1.19-.93-1.92-1.53l-.33-.44c-.57-.49.45.59-.5-.22-.67-.57-.18-.28-.37-.52a9.07,9.07,0,0,1-1.41-1.43C32,66.31,32.17,66.48,32.34,66.66ZM27.67,58.8a2.77,2.77,0,0,1,.25.62A1.28,1.28,0,0,1,27.67,58.8ZM27,45a2,2,0,0,1-.16.56A5.48,5.48,0,0,1,27,45Zm31-17h0C57.54,27.83,57.68,27.89,57.94,28Zm.79.32c.08,0,.08,0,.05,0a2.46,2.46,0,0,1-.45-.15A1.19,1.19,0,0,0,58.73,28.32ZM55.81,74.56l-.16,0C56,74.47,55.91,74.51,55.81,74.56Z" transform="translate(-25.81 -26.59)"/><path class="f9029d68-b71b-4d90-9b53-e9dae93601d9" d="M26.68,46.56s0,.06-.05.07S26.65,46.7,26.68,46.56Z" transform="translate(-25.81 -26.59)"/><path class="f9029d68-b71b-4d90-9b53-e9dae93601d9" d="M36.62,70.42h.05Z" transform="translate(-25.81 -26.59)"/><path class="f9029d68-b71b-4d90-9b53-e9dae93601d9" d="M45.91,27.67a2.61,2.61,0,0,1-.34,0S45.65,27.71,45.91,27.67Z" transform="translate(-25.81 -26.59)"/><path class="f9029d68-b71b-4d90-9b53-e9dae93601d9" d="M62.81,30.21,62.34,30a2.91,2.91,0,0,1,.4.27S62.67,30.13,62.81,30.21Z" transform="translate(-25.81 -26.59)"/><path class="f9029d68-b71b-4d90-9b53-e9dae93601d9" d="M66.28,33.41l.18.15v0C66.22,33.3,66,33.17,66.28,33.41Z" transform="translate(-25.81 -26.59)"/><path class="f9029d68-b71b-4d90-9b53-e9dae93601d9" d="M63.11,30.68c0,.08.32.21.62.44l0,0C63.82,31.07,63.48,30.85,63.11,30.68Z" transform="translate(-25.81 -26.59)"/><path class="f9029d68-b71b-4d90-9b53-e9dae93601d9" d="M63.81,31.17l.28.21S64,31.29,63.81,31.17Z" transform="translate(-25.81 -26.59)"/><path class="f9029d68-b71b-4d90-9b53-e9dae93601d9" d="M59.74,28.68c.16.09.14,0,.22.05S58.83,28.3,59.74,28.68Z" transform="translate(-25.81 -26.59)"/><polygon class="f9029d68-b71b-4d90-9b53-e9dae93601d9" points="37.46 4.42 37.39 4.28 37.17 4.22 37.46 4.42"/><path class="f9029d68-b71b-4d90-9b53-e9dae93601d9" d="M60.71,29.49l.54.28s.07,0,.15,0A5,5,0,0,0,60.71,29.49Z" transform="translate(-25.81 -26.59)"/><path class="f9029d68-b71b-4d90-9b53-e9dae93601d9" d="M61.4,29.81c.18.09.33.2.43.24A3.92,3.92,0,0,0,61.4,29.81Z" transform="translate(-25.81 -26.59)"/><polygon class="f9029d68-b71b-4d90-9b53-e9dae93601d9" points="36.75 4.01 36.6 3.9 36.24 3.68 36.75 4.01"/><path class="f9029d68-b71b-4d90-9b53-e9dae93601d9" d="M54.61,27.38,54,27.3c-.07,0,.1.06.35.09S54.71,27.42,54.61,27.38Z" transform="translate(-25.81 -26.59)"/><path class="f9029d68-b71b-4d90-9b53-e9dae93601d9" d="M56.49,28.05a2,2,0,0,1-.27-.12l0,.08Z" transform="translate(-25.81 -26.59)"/><path class="f9029d68-b71b-4d90-9b53-e9dae93601d9" d="M54.64,27.62c-.07,0-1-.07-.13.05C54.58,27.64,55.22,27.75,54.64,27.62Z" transform="translate(-25.81 -26.59)"/><polygon class="f9029d68-b71b-4d90-9b53-e9dae93601d9" points="19.06 1.01 19.22 0.97 19.17 0.83 19.06 1.01"/><path class="f9029d68-b71b-4d90-9b53-e9dae93601d9" d="M37.1,31.26c.67-.37.1-.17.72-.49.13-.13-.51.26-.36.13C37.08,31.18,36.86,31.29,37.1,31.26Z" transform="translate(-25.81 -26.59)"/><path class="f9029d68-b71b-4d90-9b53-e9dae93601d9" d="M37.46,30.9l.19-.14Z" transform="translate(-25.81 -26.59)"/><polygon class="f9029d68-b71b-4d90-9b53-e9dae93601d9" points="48.49 25.81 48.55 25.3 48.48 25.63 48.49 25.81"/><path class="f9029d68-b71b-4d90-9b53-e9dae93601d9" d="M74.23,51.42l.11-.12-.08-.3A1.84,1.84,0,0,1,74.23,51.42Z" transform="translate(-25.81 -26.59)"/><path class="f9029d68-b71b-4d90-9b53-e9dae93601d9" d="M27.44,57.45l0,0a1.69,1.69,0,0,0,.08.41Z" transform="translate(-25.81 -26.59)"/><polygon class="f9029d68-b71b-4d90-9b53-e9dae93601d9" points="4.27 36.92 4.21 36.83 4.25 37.05 4.27 36.92"/><path class="f9029d68-b71b-4d90-9b53-e9dae93601d9" d="M33.65,67.77a4.18,4.18,0,0,1-.52-.51C33.47,67.63,33.62,67.88,33.65,67.77Z" transform="translate(-25.81 -26.59)"/></g></svg>