# WaveFront *.obj file (generated by CINEMA 4D)

mtllib ./site_fouille_test.mtl

v 778.67864990234375 -432.05264282226562 37.66017150878906
v 778.67864990234375 -315.84356689453125 37.66017150878906
v 1343.571044921875 -432.05264282226562 37.66017150878906
v 1343.571044921875 -315.84356689453125 37.66017150878906
v 1334.9891357421875 -432.05264282226562 -60.43236923217773
v 1334.9891357421875 -315.84356689453125 -60.43236923217773
v 1309.50390625 -432.05264282226562 -155.54441833496094
v 1309.50390625 -315.84356689453125 -155.54441833496094
v 1267.889892578125 -432.05264282226562 -244.78604125976562
v 1267.889892578125 -315.84356689453125 -244.78604125976562
v 1211.411376953125 -432.05264282226562 -325.4456787109375
v 1211.411376953125 -315.84356689453125 -325.4456787109375
v 1141.7845458984375 -432.05264282226562 -395.07254028320312
v 1141.7845458984375 -315.84356689453125 -395.07254028320312
v 1061.1248779296875 -432.05264282226562 -451.551025390625
v 1061.1248779296875 -315.84356689453125 -451.551025390625
v 971.88323974609375 -432.05264282226562 -493.16506958007812
v 971.88323974609375 -315.84356689453125 -493.16506958007812
v 876.77117919921875 -432.05264282226562 -518.6502685546875
v 876.77117919921875 -315.84356689453125 -518.6502685546875
v 778.67864990234375 -432.05264282226562 -527.23223876953125
v 778.67864990234375 -315.84356689453125 -527.23223876953125
v 680.58612060546875 -432.05264282226562 -518.6502685546875
v 680.58612060546875 -315.84356689453125 -518.6502685546875
v 585.47406005859375 -432.05264282226562 -493.16506958007812
v 585.47406005859375 -315.84356689453125 -493.16506958007812
v 496.23245239257812 -432.05264282226562 -451.551025390625
v 496.23245239257812 -315.84356689453125 -451.551025390625
v 415.57278442382812 -432.05264282226562 -395.07254028320312
v 415.57278442382812 -315.84356689453125 -395.07254028320312
v 345.94595336914062 -432.05264282226562 -325.4456787109375
v 345.94595336914062 -315.84356689453125 -325.4456787109375
v 289.46746826171875 -432.05264282226562 -244.78604125976562
v 289.46746826171875 -315.84356689453125 -244.78604125976562
v 247.85340881347656 -432.05264282226562 -155.54441833496094
v 247.85340881347656 -315.84356689453125 -155.54441833496094
v 222.36820983886719 -432.05264282226562 -60.43236923217773
v 222.36820983886719 -315.84356689453125 -60.43236923217773
v 213.78622436523438 -432.05264282226562 37.66017150878906
v 213.78622436523438 -315.84356689453125 37.66017150878906
v 222.36820983886719 -432.05264282226562 135.75271606445312
v 222.36820983886719 -315.84356689453125 135.75271606445312
v 247.85340881347656 -432.05264282226562 230.86476135253906
v 247.85340881347656 -315.84356689453125 230.86476135253906
v 289.46746826171875 -432.05264282226562 320.10638427734375
v 289.46746826171875 -315.84356689453125 320.10638427734375
v 345.94595336914062 -432.05264282226562 400.76602172851562
v 345.94595336914062 -315.84356689453125 400.76602172851562
v 415.57278442382812 -432.05264282226562 470.39288330078125
v 415.57278442382812 -315.84356689453125 470.39288330078125
v 496.23245239257812 -432.05264282226562 526.87139892578125
v 496.23245239257812 -315.84356689453125 526.87139892578125
v 585.47406005859375 -432.05264282226562 568.48541259765625
v 585.47406005859375 -315.84356689453125 568.48541259765625
v 680.58612060546875 -432.05264282226562 593.97064208984375
v 680.58612060546875 -315.84356689453125 593.97064208984375
v 778.67864990234375 -432.05264282226562 602.5526123046875
v 778.67864990234375 -315.84356689453125 602.5526123046875
v 876.77117919921875 -432.05264282226562 593.97064208984375
v 876.77117919921875 -315.84356689453125 593.97064208984375
v 971.88323974609375 -432.05264282226562 568.48541259765625
v 971.88323974609375 -315.84356689453125 568.48541259765625
v 1061.1248779296875 -432.05264282226562 526.87139892578125
v 1061.1248779296875 -315.84356689453125 526.87139892578125
v 1141.7845458984375 -432.05264282226562 470.39288330078125
v 1141.7845458984375 -315.84356689453125 470.39288330078125
v 1211.411376953125 -432.05264282226562 400.76602172851562
v 1211.411376953125 -315.84356689453125 400.76602172851562
v 1267.889892578125 -432.05264282226562 320.10638427734375
v 1267.889892578125 -315.84356689453125 320.10638427734375
v 1309.50390625 -432.05264282226562 230.86476135253906
v 1309.50390625 -315.84356689453125 230.86476135253906
v 1334.9891357421875 -432.05264282226562 135.75271606445312
v 1334.9891357421875 -315.84356689453125 135.75271606445312
# 74 vertices

vn 0 -1 0
vn 0 0 0
vn 0.99957501888275 0 -0.02915023267269
vn 0.99957501888275 0 0.02915023267269
vn 0.9894512295723 0 -0.14486636221409
vn 0 1 0
vn 0.97932732105255 0 -0.20228199660778
vn 0.94926333427429 0 -0.31448236107826
vn 0.92932325601578 0 -0.36926716566086
vn 0.88023269176483 0 -0.47454228997231
vn 0.85108208656311 0 -0.52503263950348
vn 0.78445643186569 0 -0.6201838850975
vn 0.74698138237 0 -0.66484493017197
vn 0.6648451089859 0 -0.74698126316071
vn 0.62018382549286 0 -0.78445649147034
vn 0.52503246068954 0 -0.8510822057724
vn 0.47454231977463 0 -0.88023269176483
vn 0.36926719546318 0 -0.92932325601578
vn 0.31448224186897 0 -0.94926333427429
vn 0.2022819519043 0 -0.97932732105255
vn 0.14486666023731 0 -0.98945116996765
vn 0.02915044687688 0 -0.99957501888275
vn -0.02915044687688 0 -0.99957501888275
vn -0.14486666023731 0 -0.98945116996765
vn -0.2022819519043 0 -0.97932732105255
vn -0.3144822716713 0 -0.94926333427429
vn -0.36926731467247 0 -0.92932325601578
vn -0.47454237937927 0 -0.88023263216019
vn -0.52503246068954 0 -0.8510822057724
vn -0.62018382549286 0 -0.78445649147034
vn -0.6648451089859 0 -0.74698126316071
vn -0.74698144197464 0 -0.66484487056732
vn -0.78445655107498 0 -0.62018382549286
vn -0.85108214616776 0 -0.52503257989883
vn -0.88023263216019 0 -0.47454246878624
vn -0.92932319641113 0 -0.36926731467247
vn -0.94926333427429 0 -0.31448236107826
vn -0.97932732105255 0 -0.20228205621243
vn -0.98945116996765 0 -0.14486674964428
vn -0.99957501888275 0 -0.02915049530566
vn -0.99957501888275 0 0.02915049530566
vn -0.98945116996765 0 0.14486674964428
vn 0 1 0
vn -0.97932732105255 0 0.20228205621243
vn -0.94926333427429 0 0.31448236107826
vn -0.92932319641113 0 0.36926731467247
vn -0.88023263216019 0 0.47454246878624
vn -0.85108214616776 0 0.52503257989883
vn -0.78445655107498 0 0.62018382549286
vn -0.74698144197464 0 0.66484487056732
vn -0.6648451089859 0 0.74698120355606
vn -0.62018394470215 0 0.78445643186569
vn -0.52503252029419 0 0.85108214616776
vn -0.47454231977463 0 0.88023269176483
vn -0.3692672252655 0 0.92932325601578
vn -0.31448242068291 0 0.94926327466965
vn -0.20228216052055 0 0.97932726144791
vn -0.14486676454544 0 0.98945116996765
vn -0.02915044687688 0 0.99957501888275
vn 0.02915044687688 0 0.99957501888275
vn 0.14486676454544 0 0.98945116996765
vn 0.20228216052055 0 0.97932726144791
vn 0.31448236107826 0 0.94926333427429
vn 0 1 0
vn 0.36926713585854 0 0.92932331562042
vn 0.47454220056534 0 0.88023275136948
vn 0.52503252029419 0 0.8510822057724
vn 0.62018394470215 0 0.78445643186569
vn 0.6648451089859 0 0.74698120355606
vn 0.74698138237 0 0.66484493017197
vn 0.78445643186569 0 0.6201838850975
vn 0.85108208656311 0 0.52503263950348
vn 0.88023269176483 0 0.47454228997231
vn 0.92932325601578 0 0.36926716566086
vn 0.94926333427429 0 0.31448236107826
vn 0.97932732105255 0 0.20228199660778
vn 0.9894512295723 0 0.14486636221409
# 77 normals

vt 0.5 0.5 0
vt 0 0.5 0
vt 0.00759612349793 0.58682411909103 0
vt 0 0 0
vt 0 1 0
vt 0.02777777798474 1 0
vt 0.02777777798474 0 0
vt 1 0.5 0
vt 0.99240386486053 0.58682411909103 0
vt 0.030153689906 0.67101007699966 0
vt 0.05555555596948 1 0
vt 0.05555555596948 0 0
vt 0.96984630823135 0.67101007699966 0
vt 0.06698729842901 0.75 0
vt 0.08333333581686 1 0
vt 0.08333333581686 0 0
vt 0.93301272392273 0.75 0
vt 0.11697778105736 0.82139384746552 0
vt 0.11111111193895 1 0
vt 0.11111111193895 0 0
vt 0.88302224874496 0.82139384746552 0
vt 0.17860619723797 0.88302218914032 0
vt 0.13888889551163 1 0
vt 0.13888889551163 0 0
vt 0.82139378786087 0.88302218914032 0
vt 0.25 0.93301272392273 0
vt 0.16666667163372 1 0
vt 0.16666667163372 0 0
vt 0.75 0.93301272392273 0
vt 0.32898992300034 0.96984630823135 0
vt 0.19444444775581 1 0
vt 0.19444444775581 0 0
vt 0.67101007699966 0.96984630823135 0
vt 0.41317591071129 0.99240386486053 0
vt 0.22222222387791 1 0
vt 0.22222222387791 0 0
vt 0.58682405948639 0.99240386486053 0
vt 0.5 1 0
vt 0.25 1 0
vt 0.25 0 0
vt 0.27777779102325 1 0
vt 0.27777779102325 0 0
vt 0.30555555224419 1 0
vt 0.30555555224419 0 0
vt 0.33333334326744 1 0
vt 0.33333334326744 0 0
vt 0.36111110448837 1 0
vt 0.36111110448837 0 0
vt 0.38888889551163 1 0
vt 0.38888889551163 0 0
vt 0.41666665673256 1 0
vt 0.41666665673256 0 0
vt 0.44444444775581 1 0
vt 0.44444444775581 0 0
vt 0.47222220897675 1 0
vt 0.47222220897675 0 0
vt 0.5 0 0
vt 0.99240386486053 0.41317594051361 0
vt 0.52777779102325 1 0
vt 0.52777779102325 0 0
vt 0.00759612349793 0.41317594051361 0
vt 0.96984630823135 0.32898998260498 0
vt 0.55555558204651 1 0
vt 0.55555558204651 0 0
vt 0.030153689906 0.32898998260498 0
vt 0.93301272392273 0.25 0
vt 0.58333331346512 1 0
vt 0.58333331346512 0 0
vt 0.06698729842901 0.25 0
vt 0.88302224874496 0.17860627174377 0
vt 0.61111110448837 1 0
vt 0.61111110448837 0 0
vt 0.11697778105736 0.17860627174377 0
vt 0.82139378786087 0.11697781085968 0
vt 0.63888889551163 1 0
vt 0.63888889551163 0 0
vt 0.17860619723797 0.11697781085968 0
vt 0.75 0.06698727607727 0
vt 0.66666668653488 1 0
vt 0.66666668653488 0 0
vt 0.25 0.06698727607727 0
vt 0.67101007699966 0.03015375137329 0
vt 0.69444441795349 1 0
vt 0.69444441795349 0 0
vt 0.32898992300034 0.03015375137329 0
vt 0.58682405948639 0.00759613513947 0
vt 0.72222220897675 1 0
vt 0.72222220897675 0 0
vt 0.41317591071129 0.00759613513947 0
vt 0.75 1 0
vt 0.75 0 0
vt 0.77777779102325 1 0
vt 0.77777779102325 0 0
vt 0.80555558204651 1 0
vt 0.80555558204651 0 0
vt 0.83333331346512 1 0
vt 0.83333331346512 0 0
vt 0.86111110448837 1 0
vt 0.86111110448837 0 0
vt 0.88888889551163 1 0
vt 0.88888889551163 0 0
vt 0.91666668653488 1 0
vt 0.91666668653488 0 0
vt 0.94444441795349 1 0
vt 0.94444441795349 0 0
vt 0.97222220897675 1 0
vt 0.97222220897675 0 0
vt 1 1 0
vt 1 0 0
# 109 texture coordinates

o Cylindre
usemtl default
f 5/3/1 3/2/1 1/1/1
f 6/6/5 4/5/4 3/4/3
f 6/9/6 2/1/6 4/8/6
f 7/10/1 5/3/1 1/1/1
f 8/11/8 6/6/5 5/7/7
f 8/13/6 2/1/6 6/9/6
f 9/14/1 7/10/1 1/1/1
f 10/15/10 8/11/8 7/12/9
f 10/17/6 2/1/6 8/13/6
f 11/18/1 9/14/1 1/1/1
f 12/19/12 10/15/10 9/16/11
f 12/21/6 2/1/6 10/17/6
f 13/22/1 11/18/1 1/1/1
f 14/23/14 12/19/12 11/20/13
f 14/25/6 2/1/6 12/21/6
f 15/26/1 13/22/1 1/1/1
f 16/27/16 14/23/14 13/24/15
f 16/29/6 2/1/6 14/25/6
f 17/30/1 15/26/1 1/1/1
f 18/31/18 16/27/16 15/28/17
f 18/33/6 2/1/6 16/29/6
f 19/34/1 17/30/1 1/1/1
f 20/35/20 18/31/18 17/32/19
f 20/37/6 2/1/6 18/33/6
f 21/38/1 19/34/1 1/1/1
f 22/39/22 20/35/20 19/36/21
f 22/38/6 2/1/6 20/37/6
f 23/37/1 21/38/1 1/1/1
f 24/41/24 22/39/22 21/40/23
f 24/34/6 2/1/6 22/38/6
f 25/33/1 23/37/1 1/1/1
f 26/43/26 24/41/24 23/42/25
f 26/30/6 2/1/6 24/34/6
f 27/29/1 25/33/1 1/1/1
f 28/45/28 26/43/26 25/44/27
f 28/26/6 2/1/6 26/30/6
f 29/25/1 27/29/1 1/1/1
f 30/47/30 28/45/28 27/46/29
f 30/22/6 2/1/6 28/26/6
f 31/21/1 29/25/1 1/1/1
f 32/49/32 30/47/30 29/48/31
f 32/18/6 2/1/6 30/22/6
f 33/17/1 31/21/1 1/1/1
f 34/51/34 32/49/32 31/50/33
f 34/14/6 2/1/6 32/18/6
f 35/13/1 33/17/1 1/1/1
f 36/53/36 34/51/34 33/52/35
f 36/10/6 2/1/6 34/14/6
f 37/9/1 35/13/1 1/1/1
f 38/55/38 36/53/36 35/54/37
f 38/3/6 2/1/6 36/10/6
f 39/8/1 37/9/1 1/1/1
f 40/38/40 38/55/38 37/56/39
f 40/2/6 2/1/6 38/3/6
f 41/58/1 39/8/1 1/1/1
f 42/59/42 40/38/40 39/57/41
f 42/61/43 2/1/6 40/2/6
f 43/62/1 41/58/1 1/1/1
f 44/63/45 42/59/42 41/60/44
f 44/65/43 2/1/6 42/61/43
f 45/66/1 43/62/1 1/1/1
f 46/67/47 44/63/45 43/64/46
f 46/69/43 2/1/6 44/65/43
f 47/70/1 45/66/1 1/1/1
f 48/71/49 46/67/47 45/68/48
f 48/73/43 2/1/6 46/69/43
f 49/74/1 47/70/1 1/1/1
f 50/75/51 48/71/49 47/72/50
f 50/77/43 2/1/6 48/73/43
f 51/78/1 49/74/1 1/1/1
f 52/79/53 50/75/51 49/76/52
f 52/81/43 2/1/6 50/77/43
f 53/82/1 51/78/1 1/1/1
f 54/83/55 52/79/53 51/80/54
f 54/85/43 2/1/6 52/81/43
f 55/86/1 53/82/1 1/1/1
f 56/87/57 54/83/55 53/84/56
f 56/89/43 2/1/6 54/85/43
f 57/57/1 55/86/1 1/1/1
f 58/90/59 56/87/57 55/88/58
f 58/57/6 2/1/6 56/89/43
f 59/89/1 57/57/1 1/1/1
f 60/92/61 58/90/59 57/91/60
f 60/86/6 2/1/6 58/57/6
f 61/85/1 59/89/1 1/1/1
f 62/94/63 60/92/61 59/93/62
f 62/82/64 2/1/6 60/86/6
f 63/81/1 61/85/1 1/1/1
f 64/96/66 62/94/63 61/95/65
f 64/78/64 2/1/6 62/82/64
f 65/77/1 63/81/1 1/1/1
f 66/98/68 64/96/66 63/97/67
f 66/74/64 2/1/6 64/78/64
f 67/73/1 65/77/1 1/1/1
f 68/100/70 66/98/68 65/99/69
f 68/70/64 2/1/6 66/74/64
f 69/69/1 67/73/1 1/1/1
f 70/102/72 68/100/70 67/101/71
f 70/66/64 2/1/6 68/70/64
f 71/65/1 69/69/1 1/1/1
f 72/104/74 70/102/72 69/103/73
f 72/62/64 2/1/6 70/66/64
f 73/61/1 71/65/1 1/1/1
f 74/106/76 72/104/74 71/105/75
f 74/58/64 2/1/6 72/62/64
f 3/2/1 73/61/1 1/1/1
f 4/108/4 74/106/76 73/107/77
f 4/8/6 2/1/6 74/58/64
f 5/7/7 6/6/5 3/4/3
f 7/12/9 8/11/8 5/7/7
f 9/16/11 10/15/10 7/12/9
f 11/20/13 12/19/12 9/16/11
f 13/24/15 14/23/14 11/20/13
f 15/28/17 16/27/16 13/24/15
f 17/32/19 18/31/18 15/28/17
f 19/36/21 20/35/20 17/32/19
f 21/40/23 22/39/22 19/36/21
f 23/42/25 24/41/24 21/40/23
f 25/44/27 26/43/26 23/42/25
f 27/46/29 28/45/28 25/44/27
f 29/48/31 30/47/30 27/46/29
f 31/50/33 32/49/32 29/48/31
f 33/52/35 34/51/34 31/50/33
f 35/54/37 36/53/36 33/52/35
f 37/56/39 38/55/38 35/54/37
f 39/57/41 40/38/40 37/56/39
f 41/60/44 42/59/42 39/57/41
f 43/64/46 44/63/45 41/60/44
f 45/68/48 46/67/47 43/64/46
f 47/72/50 48/71/49 45/68/48
f 49/76/52 50/75/51 47/72/50
f 51/80/54 52/79/53 49/76/52
f 53/84/56 54/83/55 51/80/54
f 55/88/58 56/87/57 53/84/56
f 57/91/60 58/90/59 55/88/58
f 59/93/62 60/92/61 57/91/60
f 61/95/65 62/94/63 59/93/62
f 63/97/67 64/96/66 61/95/65
f 65/99/69 66/98/68 63/97/67
f 67/101/71 68/100/70 65/99/69
f 69/103/73 70/102/72 67/101/71
f 71/105/75 72/104/74 69/103/73
f 73/107/77 74/106/76 71/105/75
f 3/109/3 4/108/4 73/107/77

v 1413.2242431640625 -1259.56494140625 -313.34188842773438
v 1393.4769287109375 39.28059387207031 -200.82266235351562
v 1824.12158203125 -1259.13720703125 -246.16600036621094
v 1804.374267578125 39.70830917358398 -133.64675903320312
v 1884.2762451171875 -1226.3289794921875 -614.3251953125
v 1864.5289306640625 72.51658630371094 -501.80593872070312
v 1473.37890625 -1226.7567138671875 -681.5010986328125
v 1453.631591796875 72.08887481689453 -568.9818115234375
# 8 vertices

vn -0.16063468158245 -0.08760994672775 0.98311799764633
vn -0.16063469648361 -0.08760993927717 0.98311799764633
vn 0.98689770698547 0.00102729524951 0.1613438129425
vn 0.98689770698547 0.00102729478385 0.16134379804134
vn 0.16063465178013 0.08760996907949 -0.98311799764633
vn 0.16063462197781 0.08760996162891 -0.98311799764633
vn -0.98689770698547 -0.00102729268838 -0.1613438129425
vn -0.98689770698547 -0.00102728779893 -0.1613438129425
vn -0.01514526549727 0.99615430831909 0.08629705756903
vn -0.01514525804669 0.99615430831909 0.08629705756903
vn 0.01514529250562 -0.99615436792374 -0.08629689365625
vn 0.01514528784901 -0.99615436792374 -0.08629689365625
vn -0.16063465178013 -0.08760995417833 0.98311799764633
vn 0.98689770698547 0.00102729571518 0.1613438129425
vn 0.16063468158245 0.08760998398066 -0.98311799764633
vn -0.98689770698547 -0.00102729757782 -0.16134379804134
vn -0.01514527294785 0.99615430831909 0.08629705011845
vn 0.01514529529959 -0.99615436792374 -0.08629689365625
# 18 normals

# 0 texture coordinate

o Cube.3
usemtl default
f 78/108/78 76/5/79 75/4/78
f 80/108/80 78/5/81 77/4/80
f 82/108/82 80/5/83 79/4/82
f 76/108/84 82/5/85 81/4/84
f 80/108/86 82/5/87 76/4/86
f 77/108/88 75/5/89 81/4/88
f 77/109/90 78/108/78 75/4/78
f 79/109/91 80/108/80 77/4/80
f 81/109/92 82/108/82 79/4/82
f 75/109/93 76/108/84 81/4/84
f 78/109/94 80/108/86 76/4/86
f 79/109/95 77/108/88 81/4/88

v 680.30584716796875 164.5628662109375 1312.384521484375
v -394.33993530273438 -1933.249267578125 990.45074462890625
v 440.24517822265625 324.3231201171875 1072.6865234375
v -634.40057373046875 -1773.489013671875 750.75274658203125
v 640.32977294921875 259.23504638671875 828.91754150390625
v -434.31597900390625 -1838.5771484375 506.98373413085938
v 880.39044189453125 99.47476196289062 1068.615478515625
v -194.25532531738281 -1998.33740234375 746.68170166015625
# 8 vertices

vn -0.62135195732117 0.20212757587433 0.75701135396957
vn -0.62135189771652 0.20212757587433 0.75701135396957
vn -0.64020127058029 0.42605376243591 -0.63923436403275
vn -0.64020109176636 0.42605373263359 -0.63923448324203
vn 0.62135183811188 -0.20212753117085 -0.75701147317886
vn 0.62135189771652 -0.20212753117085 -0.75701141357422
vn 0.64020138978958 -0.42605376243591 0.63923418521881
vn 0.64020133018494 -0.42605373263359 0.6392343044281
vn -0.45173448324203 -0.8818291425705 -0.13532686233521
vn -0.45173448324203 -0.8818291425705 -0.13532686233521
vn 0.45173442363739 0.8818291425705 0.13532698154449
vn 0.45173442363739 0.8818291425705 0.13532687723637
vn -0.62135195732117 0.20212756097317 0.75701135396957
vn -0.64020144939423 0.42605379223824 -0.63923418521881
vn 0.62135183811188 -0.20212751626968 -0.75701147317886
vn 0.64020150899887 -0.42605376243591 0.63923412561417
vn -0.45173448324203 -0.88182908296585 -0.13532686233521
vn 0.45173439383507 0.8818291425705 0.13532707095146
# 18 normals

# 0 texture coordinate

o Cube.2
usemtl default
f 86/108/96 84/5/97 83/4/96
f 88/108/98 86/5/99 85/4/98
f 90/108/100 88/5/101 87/4/100
f 84/108/102 90/5/103 89/4/102
f 88/108/104 90/5/105 84/4/104
f 85/108/106 83/5/107 89/4/106
f 85/109/108 86/108/96 83/4/96
f 87/109/109 88/108/98 85/4/98
f 89/109/110 90/108/100 87/4/100
f 83/109/111 84/108/102 89/4/102
f 86/109/112 88/108/104 84/4/104
f 87/109/113 85/108/106 89/4/106

v -209.48388671875 -854.73760986328125 -1143.2706298828125
v 301.6298828125 888.33746337890625 -589.2603759765625
v 57.91353225708008 -947.20758056640625 -1099.0267333984375
v 569.02734375 795.86749267578125 -545.0164794921875
v 128.78538513183594 -877.89422607421875 -1382.4906005859375
v 639.899169921875 865.18084716796875 -828.48046875
v -138.61203002929688 -785.42425537109375 -1426.7344970703125
v 372.50173950195312 957.6507568359375 -872.724365234375
# 8 vertices

vn -0.23600499331951 -0.23081511259079 0.9439417719841
vn -0.23600497841835 -0.23081512749195 0.9439417719841
vn 0.93373769521713 -0.3229002058506 0.15449732542038
vn 0.93373763561249 -0.32290023565292 0.1544972807169
vn 0.23600494861603 0.23081505298614 -0.9439417719841
vn 0.23600490391254 0.23081503808498 -0.9439417719841
vn -0.93373763561249 0.32290023565292 -0.15449744462967
vn -0.93373763561249 0.32290026545525 -0.15449753403664
vn 0.26913863420486 0.91785615682602 0.29172670841217
vn 0.26913857460022 0.91785621643066 0.2917266190052
vn -0.26913869380951 -0.91785609722137 -0.29172691702843
vn -0.23600499331951 -0.23081508278847 0.9439417719841
vn 0.93373769521713 -0.32290017604828 0.1544973552227
vn 0.23600499331951 0.23081505298614 -0.9439417719841
vn -0.93373769521713 0.32290017604828 -0.1544973552227
vn 0.26913869380951 0.91785609722137 0.29172676801682
# 16 normals

# 0 texture coordinate

o Cube.1
usemtl default
f 94/108/114 92/5/115 91/4/114
f 96/108/116 94/5/117 93/4/116
f 98/108/118 96/5/119 95/4/118
f 92/108/120 98/5/121 97/4/120
f 96/108/122 98/5/123 92/4/122
f 93/108/124 91/5/124 97/4/124
f 93/109/125 94/108/114 91/4/114
f 95/109/126 96/108/116 93/4/116
f 97/109/127 98/108/118 95/4/118
f 91/109/128 92/108/120 97/4/120
f 94/109/129 96/108/122 92/4/122
f 95/109/124 93/108/124 97/4/124

v -100 -503.83029174804688 100
v -100 503.83029174804688 100
v 100 -503.83029174804688 100
v 100 503.83029174804688 100
v 100 -503.83029174804688 -100
v 100 503.83029174804688 -100
v -100 -503.83029174804688 -100
v -100 503.83029174804688 -100
# 8 vertices

vn 0 0 1
vn 1 0 0
vn 0 0 -1
vn 0 0 -1
vn -1 0 0
# 5 normals

# 0 texture coordinate

o Cube
usemtl default
f 102/108/130 100/5/130 99/4/130
f 104/108/131 102/5/131 101/4/131
f 106/108/132 104/5/133 103/4/132
f 100/108/134 106/5/134 105/4/134
f 104/108/6 106/5/6 100/4/6
f 101/108/1 99/5/1 105/4/1
f 101/109/130 102/108/130 99/4/130
f 103/109/131 104/108/131 101/4/131
f 105/109/132 106/108/132 103/4/132
f 99/109/134 100/108/134 105/4/134
f 102/109/6 104/108/6 100/4/6
f 103/109/1 101/108/1 105/4/1

